<svg version="1.1" id="Layer_1" xmlns="http://www.w3.org/2000/svg" xmlns:xlink="http://www.w3.org/1999/xlink" x="0px" y="0px"
	 width="823.75" height="363.75" viewBox="0 0 1280 800" enable-background="new 0 0 1280 800" xml:space="preserve">
	<g>
            <!-- i -->
		<path fill="#191919" d="M286.452,246.248c0,3.193-0.938,5.819-2.815,7.883c-1.876,2.067-4.784,3.097-8.713,3.097
			c-3.934,0-6.836-1.029-8.713-3.097c-1.876-2.063-2.815-4.689-2.815-7.883c0-3.189,0.938-5.815,2.815-7.883
			c1.877-2.063,4.78-3.097,8.713-3.097c3.929,0,6.836,1.034,8.713,3.097C285.513,240.433,286.452,243.059,286.452,246.248z
            M282.698,298.893v134.849h-15.281V298.893H282.698z"/>
            <!-- v -->
		<path fill="#191919" d="M311.918,298.893h15.817l46.649,119.365c3.929-7.505,8.177-16.188,12.734-26.041
			c4.558-9.853,8.935-20.129,13.137-30.827c4.197-10.698,7.997-21.439,11.394-32.234c3.393-10.791,5.986-20.877,7.775-30.264h14.477
			c-2.861,12.765-6.167,25.011-9.919,36.738c-3.753,11.732-7.909,23.133-12.467,34.205c-4.558,11.076-9.429,21.915-14.611,32.516
            c-5.186,10.605-10.636,21.07-16.354,31.39H365L311.918,298.893z"/>
            <!-- y -->
		<path fill="#191919" d="M563.925,298.893v140.761c0,17.076-4.29,29.604-12.869,37.583c-8.579,7.975-21.54,11.965-38.874,11.965
			c-6.971,0-14.611-0.506-22.922-1.518s-16.044-2.622-23.19-4.83l2.413-14.204c6.971,2.063,14.385,3.66,22.252,4.786
			c7.863,1.126,14.921,1.689,21.18,1.689c13.405,0,22.876-2.886,28.418-8.644c5.538-5.767,8.311-14.41,8.311-25.936V429.8
			c-4.47,0.941-9.919,1.83-16.354,2.675c-6.434,0.845-13.229,1.267-20.375,1.267c-6.794,0-13.271-0.796-19.437-2.393
			c-6.166-1.593-11.574-4.224-16.22-7.883c-4.65-3.66-8.403-8.445-11.26-14.357c-2.861-5.912-4.29-13.276-4.29-22.1v-88.116h15.282
			v87.271c0,6.383,1.026,11.731,3.083,16.047c2.053,4.319,4.733,7.742,8.043,10.275c3.305,2.534,7.146,4.363,11.528,5.489
			c4.377,1.127,8.981,1.689,13.807,1.689c6.434,0,13.002-0.466,19.705-1.407c6.702-0.938,12.198-1.874,16.488-2.815v-116.55H563.925z
			"/>
	</g>
	<g>
            <!-- [ -->
        <path fill="#191919" d="M625.804,385.181v8.276h-19.785v138.508h19.785v8.277H596.85V385.181H625.804z"/>
            <!-- 1 -->
        <path fill="#191919" d="M677.728,396.16h7.753v112.327h-9.651v-102.53l-24.771,7.095v-9.29L677.728,396.16z"/>
            <!-- 0 -->
		<path fill="#191919" d="M811.271,452.239c0,10.473-0.752,19.37-2.253,26.688c-1.503,7.321-3.835,13.288-6.997,17.904
			c-3.164,4.619-7.105,7.968-11.823,10.051c-4.72,2.082-10.294,3.125-16.729,3.125s-12.012-1.043-16.729-3.125
			c-4.72-2.083-8.661-5.432-11.823-10.051c-3.164-4.616-5.496-10.583-6.997-17.904c-1.503-7.318-2.252-16.216-2.252-26.688
			c0-10.359,0.749-19.198,2.252-26.52c1.501-7.318,3.833-13.286,6.997-17.904c3.162-4.616,7.104-7.995,11.823-10.135
			c4.718-2.138,10.295-3.209,16.729-3.209s12.009,1.042,16.729,3.125c4.718,2.085,8.659,5.434,11.823,10.05
			c3.162,4.618,5.494,10.586,6.997,17.904C810.52,432.872,811.271,441.767,811.271,452.239z M801.137,452.155
			c0-9.105-0.51-16.749-1.528-22.933c-1.02-6.182-2.653-11.186-4.905-15.007c-2.252-3.822-5.123-6.575-8.606-8.261
			c-3.486-1.687-7.696-2.531-12.627-2.531c-4.934,0-9.144,0.845-12.628,2.531c-3.485,1.686-6.354,4.438-8.605,8.261
			c-2.252,3.821-3.888,8.825-4.906,15.007c-1.021,6.184-1.528,13.827-1.528,22.933s0.508,16.751,1.528,22.933
			c1.019,6.184,2.654,11.214,4.906,15.091c2.252,3.88,5.12,6.661,8.605,8.348c3.484,1.687,7.694,2.528,12.628,2.528
			c4.931,0,9.141-0.842,12.627-2.528c3.483-1.687,6.354-4.468,8.606-8.348c2.252-3.877,3.886-8.907,4.905-15.091
            C800.627,468.906,801.137,461.261,801.137,452.155z"/>
            <!-- 7 -->
        <path fill="#191919" d="M905.854,396.16v7.433l-52.922,104.895h-10.295l51.796-103.375h-58.713v-8.952H905.854z"/>
            <!-- ] -->
		<path fill="#191919" d="M950.251,385.181v155.062h-28.954v-8.277h19.785V393.458h-19.785v-8.276H950.251z"/>
    </g>
            <!-- Leaf -->
	<g>
		<g>
			<defs>
				<rect id="SVGID_1_" x="863.612" y="244.098" width="167.958" height="125.969"/>
			</defs>
			<clipPath id="SVGID_2_">
				<use xlink:href="#SVGID_1_"  overflow="visible"/>
			</clipPath>
			<g clip-path="url(#SVGID_2_)">
				<defs>
					<rect id="SVGID_3_" x="863.612" y="244.098" width="167.958" height="125.969"/>
				</defs>
				<clipPath id="SVGID_4_">
					<use xlink:href="#SVGID_3_"  overflow="visible"/>
				</clipPath>
			</g>
			<g clip-path="url(#SVGID_2_)">
				<defs>
					<rect id="SVGID_5_" x="863.612" y="244.098" width="167.958" height="125.969"/>
				</defs>
				<clipPath id="SVGID_6_">
					<use xlink:href="#SVGID_5_"  overflow="visible"/>
                </clipPath>
                    <!-- Background Fill -->
				<path clip-path="url(#SVGID_6_)" fill="#F2F2F2" d="M1005.59,307.148c0,32.191-26.097,58.288-58.288,58.288
					s-58.288-26.097-58.288-58.288c0-32.192,26.097-58.288,58.288-58.288S1005.59,274.956,1005.59,307.148"/>
                        <!-- Rim Circle -->
					<circle clip-path="url(#SVGID_6_)" fill="none" stroke="#191919" stroke-width="5" stroke-miterlimit="10" cx="947.302" cy="307.148" r="58.288"/>
			</g>
			<g clip-path="url(#SVGID_2_)">
				<defs>
					<rect id="SVGID_7_" x="863.612" y="244.098" width="167.958" height="125.969"/>
				</defs>
				<clipPath id="SVGID_8_">
					<use xlink:href="#SVGID_7_"  overflow="visible"/>
                </clipPath>
                    <!-- Leaf Body -->
				<path clip-path="url(#SVGID_8_)" fill-rule="evenodd" clip-rule="evenodd" fill="#191919" d="M969.943,326.601
					c-3.188-0.172-6.108-0.621-8.824-1.973c-0.224-0.112-0.457-0.242-0.691-0.082c-0.249,0.169-0.17,0.435-0.113,0.674
					c1.021,4.372,0.714,8.648-0.837,12.862c-0.678,1.841-1.354,3.69-2.23,5.433c-1.097,2.185-2.705,3.95-4.779,5.365
					c-2.325,1.587-4.841,2.613-7.545,3.18c-1.776,0.372-3.602,0.521-5.412,0.714c-0.627,0.066-1.234,0.213-1.854,0.303
					c-1.139,0.165-1.885-0.194-2.116-1.291c-0.467-2.209-2.179-3.409-3.692-4.736c-2.601-2.28-5.738-3.747-8.671-5.529
					c-2.838-1.726-5.803-3.244-8.502-5.204c-1.03-0.748-2.315-1.112-3.327-1.913c-1.239-0.98-2.697-1.521-4.103-2.18
					c-1.229-0.576-1.313-1.288-0.386-2.281c2.306-2.468,4.659-4.891,6.862-7.454c0.476-0.553,1.054-1.026,1.623-1.488
					c1.023-0.832,1.916-1.761,2.612-2.894c0.308-0.502,0.752-0.94,1.198-1.335c1.702-1.506,2.296-3.486,2.363-5.644
					c0.104-3.3,0.168-6.62-0.358-9.883c-0.501-3.104-0.143-6.257-0.738-9.345c-0.573-2.973-0.695-6.005-1.09-9.003
					c-0.139-1.05-0.121-2.122-0.173-3.184c-0.192-3.876-0.894-7.685-1.553-11.498c-0.214-1.234-0.639-2.43-0.73-3.687
					c-0.055-0.745-0.3-1.612,0.468-2.105c0.804-0.516,1.347,0.215,1.937,0.628c2.21,1.548,4.488,2.986,6.954,4.1
					c1.672,0.755,3.156,1.843,4.796,2.651c2.253,1.11,4.629,1.918,7.012,2.68c2.544,0.813,5.075,1.642,7.579,2.583
					c2.375,0.892,4.626,2.063,7.033,2.878c1.706,0.578,3.299,1.473,4.625,2.719c2.776,2.611,5.801,2.366,8.922,0.828
					c3.249-1.601,6.424-3.351,9.651-4.989c2.17-1.102,4.401-2.161,6.762-2.864c1.313-0.392,1.483-0.235,1.533,1.157
					c0.137,3.879,0.665,7.691,1.802,11.424c0.409,1.343,0.48,2.786,0.742,4.177c0.494,2.623,1.222,5.191,1.809,7.792
					c0.342,1.519,0.726,3.009,1.302,4.463c0.379,0.955,0.858,1.82,1.485,2.617c0.169,0.216,0.339,0.399,0.295,0.72
					c-0.325,2.392-0.565,4.796-0.966,7.175c-0.396,2.363-1.411,4.464-3.193,6.125c-1.476,1.374-2.746,2.964-4.42,4.129
					c-0.36,0.251-0.708,0.512-1.116,0.668c-3.134,1.2-6.264,2.395-9.718,2.221C971.359,326.266,970.58,326.725,969.943,326.601"/>
            </g>
                <!-- lil stub out line (but its not important) -->
            <line clip-path="url(#SVGID_2_)" fill="#FFFFFF" x1="960.188" y1="324.141" x2="963.599" y2="329.302"/>
                <!-- lil stub body -->
			<polygon clip-path="url(#SVGID_2_)" fill="#191919" points="960.844,323.707 963.599,329.302 959.53,324.575 		"/>
			<g clip-path="url(#SVGID_2_)">
				<defs>
					<rect id="SVGID_9_" x="863.612" y="244.098" width="167.958" height="125.969"/>
				</defs>
				<clipPath id="SVGID_10_">
					<use xlink:href="#SVGID_9_"  overflow="visible"/>
                </clipPath>
                    <!-- Center stem -->
				<path clip-path="url(#SVGID_10_)" fill="#F2F2F2" d="M958.31,322.904c0,0-10.53-14.523-20.798-29.23
					c-5.135-7.354-10.203-14.754-13.855-20.404c-1.826-2.825-3.297-5.213-4.244-6.933c-0.474-0.859-0.814-1.552-1.007-2.042
					c-0.099-0.244-0.15-0.439-0.182-0.571c-0.017-0.135-0.024-0.205-0.024-0.205s0.01,0.069,0.028,0.204
					c0.034,0.131,0.09,0.325,0.194,0.566c0.202,0.484,0.558,1.168,1.05,2.016c0.982,1.696,2.504,4.048,4.39,6.83
                    c3.771,5.564,8.999,12.847,14.29,20.082c10.584,14.471,21.423,28.75,21.423,28.75L958.31,322.904z"/>
                    <!-- Right Stem -->
				<path clip-path="url(#SVGID_10_)" fill="#F2F2F2" d="M958.696,321.687c0,0,0.003-0.001,0.009-0.004l0.002-0.001
					c0.003,0,0.003-0.001-0.016,0.005c-0.026,0.008-0.056,0.02-0.088,0.035c-0.063,0.03-0.134,0.078-0.195,0.142
					c-0.03,0.031-0.021,0.027-0.002,0c0.039-0.051,0.117-0.165,0.216-0.318c0.199-0.309,0.491-0.786,0.855-1.398
					c0.729-1.226,1.753-3,2.962-5.139c2.418-4.281,5.575-10.031,8.639-15.831c3.065-5.799,6.026-11.654,8.131-16.102
					c2.116-4.443,3.353-7.485,3.353-7.485s-1.146,3.078-3.129,7.586c-1.972,4.514-4.759,10.462-7.653,16.357
					c-2.892,5.898-5.879,11.748-8.174,16.11c-1.146,2.182-2.12,3.992-2.821,5.255c-0.352,0.632-0.633,1.126-0.841,1.471
					c-0.104,0.172-0.188,0.306-0.266,0.416c-0.038,0.054-0.078,0.107-0.142,0.176c-0.07,0.072-0.15,0.127-0.221,0.164
					c-0.034,0.019-0.067,0.033-0.097,0.044c-0.009,0.003-0.016,0.006-0.022,0.009c-0.006,0.002-0.009,0.004-0.009,0.004
                    L958.696,321.687z"/>
                    <!-- Left Stem -->
				<path clip-path="url(#SVGID_10_)" fill="#F2F2F2" d="M959.252,323.158c0,0-0.182,0.077-0.557,0.218
					c-0.187,0.074-0.411,0.153-0.674,0.246c-0.265,0.094-0.567,0.204-0.908,0.313c-0.341,0.111-0.718,0.234-1.128,0.367
					c-0.412,0.125-0.858,0.26-1.335,0.403c-0.476,0.147-0.988,0.276-1.524,0.428c-0.536,0.15-1.102,0.305-1.695,0.447
					c-0.592,0.147-1.209,0.3-1.848,0.459c-0.642,0.143-1.305,0.291-1.987,0.443c-0.341,0.075-0.687,0.151-1.036,0.229
					c-0.352,0.069-0.707,0.139-1.067,0.21c-0.719,0.142-1.453,0.287-2.199,0.434c-0.75,0.128-1.514,0.259-2.285,0.391
					c-0.771,0.131-1.552,0.273-2.343,0.38c-1.582,0.222-3.183,0.487-4.794,0.663c-1.61,0.19-3.217,0.404-4.807,0.538
					c-0.794,0.075-1.582,0.15-2.359,0.225c-0.39,0.036-0.776,0.072-1.16,0.108c-0.385,0.027-0.767,0.054-1.146,0.081
					c-1.514,0.105-2.978,0.207-4.366,0.303c-1.39,0.064-2.704,0.124-3.916,0.179c-0.606,0.028-1.188,0.055-1.74,0.08
					c-0.553,0.012-1.078,0.023-1.57,0.034c-0.986,0.021-1.846,0.04-2.554,0.055c-1.415,0.03-2.224,0.048-2.224,0.048
					s0.808-0.042,2.222-0.115c0.707-0.037,1.564-0.081,2.549-0.132c0.492-0.026,1.016-0.053,1.567-0.083
					c0.551-0.042,1.131-0.086,1.735-0.133c1.209-0.092,2.519-0.192,3.904-0.297c1.382-0.139,2.839-0.285,4.347-0.436
					c0.377-0.038,0.757-0.077,1.14-0.115c0.382-0.047,0.767-0.095,1.153-0.142c0.772-0.098,1.556-0.197,2.344-0.296
					c1.58-0.182,3.174-0.443,4.771-0.682c1.599-0.223,3.184-0.536,4.748-0.804c0.783-0.13,1.554-0.295,2.316-0.448
					c0.763-0.155,1.516-0.308,2.256-0.458c0.736-0.168,1.46-0.334,2.169-0.496c0.354-0.081,0.705-0.161,1.051-0.241
					c0.344-0.087,0.684-0.172,1.02-0.257c0.67-0.171,1.322-0.337,1.952-0.498c0.626-0.176,1.23-0.346,1.812-0.509
					c0.582-0.158,1.133-0.328,1.657-0.491c0.523-0.166,1.024-0.308,1.485-0.467c0.463-0.155,0.896-0.3,1.297-0.435
					c0.396-0.143,0.761-0.274,1.089-0.392c0.33-0.116,0.618-0.231,0.87-0.33c0.251-0.098,0.466-0.181,0.63-0.252
					c0.331-0.136,0.52-0.221,0.52-0.221L959.252,323.158z"/>
			</g>
		</g>
	</g>
</svg>