<?xml version="1.0" encoding="UTF-8"?>
<svg xmlns="http://www.w3.org/2000/svg" xmlns:xlink="http://www.w3.org/1999/xlink" width="800pt" height="1280pt" viewBox="0 0 800 1280" version="1.1">
<g id="surface1">
<path style=" stroke:none;fill-rule:nonzero;fill:rgb(94.901961%,94.901961%,94.901961%);fill-opacity:1;" d="M 286.453125 246.246094 C 286.453125 249.441406 285.515625 252.066406 283.636719 254.132812 C 281.761719 256.199219 278.851562 257.226562 274.925781 257.226562 C 270.988281 257.226562 268.089844 256.199219 266.210938 254.132812 C 264.335938 252.066406 263.394531 249.441406 263.394531 246.246094 C 263.394531 243.058594 264.335938 240.433594 266.210938 238.363281 C 268.089844 236.300781 270.992188 235.269531 274.925781 235.269531 C 278.851562 235.269531 281.761719 236.300781 283.636719 238.363281 C 285.511719 240.433594 286.453125 243.058594 286.453125 246.246094 Z M 282.699219 298.894531 L 282.699219 433.742188 L 267.417969 433.742188 L 267.417969 298.894531 Z M 282.699219 298.894531 "/>
<path style=" stroke:none;fill-rule:nonzero;fill:rgb(94.901961%,94.901961%,94.901961%);fill-opacity:1;" d="M 311.917969 298.894531 L 327.734375 298.894531 L 374.382812 418.257812 C 378.3125 410.753906 382.5625 402.070312 387.117188 392.21875 C 391.675781 382.363281 396.054688 372.089844 400.253906 361.390625 C 404.453125 350.691406 408.253906 339.949219 411.648438 329.15625 C 415.042969 318.363281 417.636719 308.277344 419.425781 298.890625 L 433.902344 298.890625 C 431.039062 311.65625 427.734375 323.902344 423.980469 335.628906 C 420.230469 347.363281 416.074219 358.761719 411.515625 369.835938 C 406.957031 380.910156 402.085938 391.75 396.902344 402.351562 C 391.71875 412.957031 386.269531 423.421875 380.550781 433.742188 L 365 433.742188 Z M 311.917969 298.894531 "/>
<path style=" stroke:none;fill-rule:nonzero;fill:rgb(94.901961%,94.901961%,94.901961%);fill-opacity:1;" d="M 563.925781 298.894531 L 563.925781 439.652344 C 563.925781 456.730469 559.636719 469.257812 551.054688 477.238281 C 542.476562 485.210938 529.515625 489.203125 512.183594 489.203125 C 505.210938 489.203125 497.570312 488.695312 489.261719 487.683594 C 480.949219 486.671875 473.214844 485.0625 466.070312 482.855469 L 468.484375 468.648438 C 475.453125 470.714844 482.867188 472.308594 490.734375 473.4375 C 498.597656 474.5625 505.65625 475.125 511.914062 475.125 C 525.320312 475.125 534.789062 472.238281 540.332031 466.480469 C 545.871094 460.714844 548.644531 452.070312 548.644531 440.546875 L 548.644531 429.800781 C 544.175781 430.742188 538.726562 431.628906 532.289062 432.476562 C 525.855469 433.320312 519.0625 433.742188 511.914062 433.742188 C 505.121094 433.742188 498.644531 432.945312 492.476562 431.347656 C 486.3125 429.757812 480.902344 427.125 476.257812 423.464844 C 471.609375 419.804688 467.855469 415.019531 464.996094 409.109375 C 462.136719 403.195312 460.707031 395.832031 460.707031 387.007812 L 460.707031 298.894531 L 475.988281 298.894531 L 475.988281 386.164062 C 475.988281 392.546875 477.015625 397.894531 479.074219 402.210938 C 481.125 406.53125 483.804688 409.953125 487.117188 412.484375 C 490.421875 415.019531 494.261719 416.847656 498.644531 417.976562 C 503.019531 419.101562 507.625 419.664062 512.449219 419.664062 C 518.886719 419.664062 525.453125 419.199219 532.15625 418.257812 C 538.859375 417.320312 544.355469 416.382812 548.644531 415.441406 L 548.644531 298.890625 L 563.925781 298.890625 Z M 563.925781 298.894531 "/>
<path style=" stroke:none;fill-rule:nonzero;fill:rgb(94.901961%,94.901961%,94.901961%);fill-opacity:1;" d="M 625.804688 385.179688 L 625.804688 393.457031 L 606.019531 393.457031 L 606.019531 531.964844 L 625.804688 531.964844 L 625.804688 540.242188 L 596.851562 540.242188 L 596.851562 385.179688 Z M 625.804688 385.179688 "/>
<path style=" stroke:none;fill-rule:nonzero;fill:rgb(94.901961%,94.901961%,94.901961%);fill-opacity:1;" d="M 677.726562 396.160156 L 685.480469 396.160156 L 685.480469 508.488281 L 675.828125 508.488281 L 675.828125 405.957031 L 651.058594 413.050781 L 651.058594 403.761719 Z M 677.726562 396.160156 "/>
<path style=" stroke:none;fill-rule:nonzero;fill:rgb(94.901961%,94.901961%,94.901961%);fill-opacity:1;" d="M 811.269531 452.238281 C 811.269531 462.710938 810.519531 471.609375 809.019531 478.925781 C 807.515625 486.246094 805.183594 492.214844 802.019531 496.832031 C 798.855469 501.449219 794.914062 504.800781 790.199219 506.882812 C 785.476562 508.964844 779.902344 510.007812 773.46875 510.007812 C 767.035156 510.007812 761.457031 508.964844 756.738281 506.882812 C 752.019531 504.800781 748.078125 501.449219 744.917969 496.832031 C 741.753906 492.214844 739.421875 486.246094 737.921875 478.925781 C 736.417969 471.609375 735.667969 462.710938 735.667969 452.238281 C 735.667969 441.878906 736.417969 433.039062 737.921875 425.71875 C 739.421875 418.402344 741.753906 412.433594 744.917969 407.816406 C 748.078125 403.199219 752.019531 399.820312 756.738281 397.679688 C 761.457031 395.542969 767.035156 394.472656 773.46875 394.472656 C 779.902344 394.472656 785.476562 395.511719 790.199219 397.597656 C 794.914062 399.679688 798.855469 403.03125 802.019531 407.644531 C 805.183594 412.265625 807.515625 418.230469 809.019531 425.550781 C 810.519531 432.871094 811.269531 441.765625 811.269531 452.238281 Z M 801.136719 452.15625 C 801.136719 443.050781 800.628906 435.40625 799.609375 429.222656 C 798.589844 423.039062 796.957031 418.035156 794.703125 414.214844 C 792.453125 410.394531 789.582031 407.640625 786.097656 405.953125 C 782.613281 404.265625 778.402344 403.421875 773.472656 403.421875 C 768.535156 403.421875 764.328125 404.269531 760.84375 405.953125 C 757.359375 407.640625 754.488281 410.390625 752.238281 414.214844 C 749.984375 418.035156 748.351562 423.039062 747.332031 429.222656 C 746.3125 435.40625 745.804688 443.050781 745.804688 452.15625 C 745.804688 461.261719 746.3125 468.90625 747.332031 475.089844 C 748.351562 481.273438 749.984375 486.300781 752.238281 490.179688 C 754.488281 494.058594 757.359375 496.839844 760.84375 498.527344 C 764.328125 500.214844 768.535156 501.054688 773.472656 501.054688 C 778.402344 501.054688 782.613281 500.214844 786.097656 498.527344 C 789.582031 496.839844 792.453125 494.058594 794.703125 490.179688 C 796.957031 486.300781 798.589844 481.273438 799.609375 475.089844 C 800.628906 468.90625 801.136719 461.261719 801.136719 452.15625 Z M 801.136719 452.15625 "/>
</g>
</svg>
