<?xml version="1.0" encoding="UTF-8"?>
<svg xmlns="http://www.w3.org/2000/svg" xmlns:xlink="http://www.w3.org/1999/xlink" width="364pt" height="824pt" viewBox="0 0 364 824" version="1.1">
<g id="surface3">
<path style=" stroke:none;fill-rule:nonzero;fill:rgb(9.803922%,9.803922%,9.803922%);fill-opacity:1;" d="M 251.136719 112.042969 C 251.136719 113.496094 250.707031 114.691406 249.855469 115.628906 C 249 116.570312 247.679688 117.039062 245.890625 117.039062 C 244.101562 117.039062 242.78125 116.570312 241.925781 115.628906 C 241.074219 114.691406 240.644531 113.496094 240.644531 112.042969 C 240.644531 110.59375 241.070312 109.398438 241.925781 108.457031 C 242.78125 107.515625 244.101562 107.046875 245.890625 107.046875 C 247.679688 107.046875 249 107.515625 249.855469 108.457031 C 250.707031 109.398438 251.136719 110.59375 251.136719 112.042969 Z M 249.425781 135.996094 L 249.425781 197.351562 L 242.476562 197.351562 L 242.476562 135.996094 Z M 249.425781 135.996094 "/>
<path style=" stroke:none;fill-rule:nonzero;fill:rgb(9.803922%,9.803922%,9.803922%);fill-opacity:1;" d="M 262.722656 135.996094 L 269.917969 135.996094 L 291.144531 190.308594 C 292.933594 186.894531 294.867188 182.941406 296.9375 178.457031 C 299.011719 173.976562 301.003906 169.300781 302.917969 164.433594 C 304.824219 159.566406 306.554688 154.675781 308.101562 149.765625 C 309.644531 144.855469 310.824219 140.265625 311.636719 135.996094 L 318.226562 135.996094 C 316.921875 141.804688 315.417969 147.375 313.710938 152.710938 C 312.003906 158.050781 310.113281 163.238281 308.039062 168.273438 C 305.964844 173.316406 303.75 178.246094 301.390625 183.070312 C 299.03125 187.894531 296.550781 192.65625 293.949219 197.351562 L 286.875 197.351562 Z M 262.722656 135.996094 "/>
<path style=" stroke:none;fill-rule:nonzero;fill:rgb(9.803922%,9.803922%,9.803922%);fill-opacity:1;" d="M 377.386719 135.996094 L 377.386719 200.042969 C 377.386719 207.8125 375.433594 213.511719 371.53125 217.144531 C 367.628906 220.769531 361.730469 222.585938 353.84375 222.585938 C 350.671875 222.585938 347.195312 222.355469 343.414062 221.894531 C 339.632812 221.4375 336.113281 220.703125 332.863281 219.699219 L 333.960938 213.234375 C 337.132812 214.175781 340.503906 214.902344 344.085938 215.414062 C 347.660156 215.925781 350.875 216.183594 353.722656 216.183594 C 359.820312 216.183594 364.128906 214.867188 366.652344 212.25 C 369.171875 209.625 370.433594 205.691406 370.433594 200.449219 L 370.433594 195.558594 C 368.398438 195.988281 365.917969 196.390625 362.992188 196.777344 C 360.066406 197.160156 356.972656 197.351562 353.722656 197.351562 C 350.628906 197.351562 347.683594 196.992188 344.878906 196.265625 C 342.070312 195.539062 339.609375 194.34375 337.496094 192.675781 C 335.382812 191.011719 333.675781 188.835938 332.375 186.144531 C 331.074219 183.453125 330.421875 180.105469 330.421875 176.089844 L 330.421875 135.996094 L 337.375 135.996094 L 337.375 175.703125 C 337.375 178.609375 337.84375 181.042969 338.777344 183.007812 C 339.710938 184.972656 340.933594 186.527344 342.4375 187.679688 C 343.941406 188.835938 345.6875 189.667969 347.683594 190.179688 C 349.675781 190.691406 351.769531 190.945312 353.964844 190.945312 C 356.894531 190.945312 359.882812 190.734375 362.929688 190.308594 C 365.980469 189.878906 368.480469 189.453125 370.433594 189.027344 L 370.433594 135.996094 Z M 377.386719 135.996094 "/>
</g>
</svg>
