<?xml version="1.0" encoding="UTF-8"?>
<svg xmlns="http://www.w3.org/2000/svg" xmlns:xlink="http://www.w3.org/1999/xlink" width="1080pt" height="1080pt" viewBox="0 0 1080 1080" version="1.1">
<g id="surface8">
<path style="fill-rule:nonzero;fill:rgb(94.901961%,94.901961%,94.901961%);fill-opacity:1;stroke-width:5;stroke-linecap:butt;stroke-linejoin:miter;stroke:rgb(9.803922%,9.803922%,9.803922%);stroke-opacity:1;stroke-miterlimit:10;" d="M 1025.984375 539.25 C 1025.984375 807.710938 808.355469 1025.339844 539.894531 1025.339844 C 271.433594 1025.339844 53.804688 807.710938 53.804688 539.25 C 53.804688 270.789062 271.433594 53.15625 539.894531 53.15625 C 808.355469 53.15625 1025.984375 270.789062 1025.984375 539.25 Z M 1025.984375 539.25 "/>
<path style=" stroke:none;fill-rule:evenodd;fill:rgb(9.803922%,9.803922%,9.803922%);fill-opacity:1;" d="M 728.714844 701.472656 C 702.136719 700.035156 677.773438 696.296875 655.125 685.019531 C 653.261719 684.085938 651.3125 683 649.359375 684.335938 C 647.285156 685.753906 647.945312 687.960938 648.410156 689.960938 C 656.925781 726.421875 654.371094 762.082031 641.433594 797.222656 C 635.78125 812.570312 630.140625 827.992188 622.839844 842.527344 C 613.6875 860.753906 600.277344 875.472656 582.980469 887.269531 C 563.585938 900.507812 542.609375 909.066406 520.054688 913.789062 C 505.242188 916.894531 490.019531 918.140625 474.925781 919.746094 C 469.691406 920.300781 464.628906 921.523438 459.464844 922.269531 C 449.96875 923.640625 443.75 920.648438 441.816406 911.507812 C 437.925781 893.082031 423.648438 883.078125 411.023438 872.011719 C 389.335938 853.003906 363.171875 840.769531 338.714844 825.90625 C 315.050781 811.519531 290.324219 798.851562 267.8125 782.507812 C 259.21875 776.273438 248.503906 773.234375 240.066406 766.558594 C 229.734375 758.386719 217.570312 753.871094 205.851562 748.378906 C 195.601562 743.578125 194.90625 737.640625 202.640625 729.359375 C 221.863281 708.773438 241.496094 688.570312 259.867188 667.195312 C 263.832031 662.585938 268.652344 658.640625 273.402344 654.78125 C 281.9375 647.847656 289.378906 640.101562 295.183594 630.648438 C 297.757812 626.460938 301.457031 622.808594 305.179688 619.515625 C 319.378906 606.953125 324.324219 590.449219 324.886719 572.445312 C 325.75 544.925781 326.285156 517.242188 321.898438 490.03125 C 317.726562 464.140625 320.710938 437.851562 315.742188 412.101562 C 310.964844 387.304688 309.945312 362.019531 306.652344 337.023438 C 305.496094 328.261719 305.648438 319.328125 305.210938 310.472656 C 303.609375 278.144531 297.765625 246.386719 292.261719 214.585938 C 290.480469 204.296875 286.933594 194.324219 286.167969 183.839844 C 285.714844 177.621094 283.671875 170.390625 290.074219 166.277344 C 296.769531 161.980469 301.300781 168.070312 306.21875 171.515625 C 324.652344 184.421875 343.652344 196.421875 364.214844 205.707031 C 378.15625 212 390.539062 221.078125 404.210938 227.816406 C 422.996094 237.074219 442.8125 243.8125 462.683594 250.164062 C 483.898438 256.949219 505.003906 263.863281 525.886719 271.703125 C 545.695312 279.140625 564.464844 288.910156 584.539062 295.703125 C 598.773438 300.519531 612.054688 307.984375 623.109375 318.382812 C 646.269531 340.152344 671.492188 338.109375 697.519531 325.28125 C 724.613281 311.929688 751.085938 297.339844 778 283.675781 C 796.101562 274.488281 814.710938 265.660156 834.390625 259.792969 C 845.34375 256.527344 846.765625 257.832031 847.179688 269.441406 C 848.324219 301.792969 852.722656 333.585938 862.203125 364.710938 C 865.613281 375.910156 866.210938 387.945312 868.394531 399.542969 C 872.511719 421.414062 878.585938 442.839844 883.472656 464.527344 C 886.328125 477.199219 889.527344 489.625 894.332031 501.75 C 897.496094 509.71875 901.484375 516.933594 906.714844 523.574219 C 908.132812 525.378906 909.539062 526.902344 909.175781 529.578125 C 906.46875 549.523438 904.457031 569.578125 901.128906 589.414062 C 897.816406 609.125 889.355469 626.644531 874.488281 640.492188 C 862.191406 651.949219 851.59375 665.210938 837.628906 674.925781 C 834.621094 677.019531 831.730469 679.195312 828.320312 680.503906 C 802.191406 690.507812 776.089844 700.46875 747.285156 699.023438 C 740.519531 698.683594 734.027344 702.511719 728.714844 701.472656 Z M 728.714844 701.472656 "/>
<path style=" stroke:none;fill-rule:nonzero;fill:rgb(100%,100%,100%);fill-opacity:1;" d="M 647.355469 680.960938 L 675.808594 724.003906 "/>
<path style=" stroke:none;fill-rule:nonzero;fill:rgb(9.803922%,9.803922%,9.803922%);fill-opacity:1;" d="M 649.859375 679.308594 L 675.808594 724.003906 L 644.851562 682.613281 Z M 649.859375 679.308594 "/>
<path style=" stroke:none;fill-rule:nonzero;fill:rgb(100%,100%,100%);fill-opacity:1;" d="M 634.558594 668.519531 C 634.558594 668.519531 546.042969 547.960938 459.699219 425.84375 C 416.527344 364.785156 373.894531 303.335938 343.167969 256.410156 C 327.804688 232.953125 315.417969 213.117188 307.441406 198.828125 C 303.449219 191.691406 300.566406 185.933594 298.941406 181.859375 C 298.125 179.824219 297.632812 178.210938 297.402344 177.101562 C 297.296875 176.546875 297.226562 176.121094 297.222656 175.835938 C 297.203125 175.546875 297.195312 175.402344 297.195312 175.402344 C 297.195312 175.402344 297.207031 175.546875 297.226562 175.832031 C 297.234375 176.121094 297.308594 176.542969 297.417969 177.097656 C 297.660156 178.203125 298.167969 179.808594 299.003906 181.832031 C 300.667969 185.882812 303.605469 191.609375 307.664062 198.703125 C 315.78125 212.898438 328.359375 232.597656 343.949219 255.890625 C 375.132812 302.488281 418.367188 363.492188 462.136719 424.097656 C 549.683594 545.316406 639.378906 664.945312 639.378906 664.945312 Z M 634.558594 668.519531 "/>
<path style=" stroke:none;fill-rule:nonzero;fill:rgb(100%,100%,100%);fill-opacity:1;" d="M 636.03125 663.882812 C 636.03125 663.882812 636.054688 663.871094 636.105469 663.851562 L 636.125 663.84375 C 636.140625 663.839844 636.144531 663.835938 636.074219 663.855469 C 635.980469 663.882812 635.875 663.917969 635.761719 663.96875 C 635.539062 664.070312 635.285156 664.234375 635.074219 664.460938 C 635.035156 664.492188 635.175781 664.347656 635.382812 664.058594 C 635.796875 663.496094 636.457031 662.507812 637.296875 661.183594 C 638.976562 658.527344 641.386719 654.511719 644.398438 649.363281 C 650.417969 639.054688 658.839844 624.179688 668.78125 606.238281 C 688.664062 570.355469 714.609375 522.175781 739.765625 473.585938 C 752.34375 449.289062 764.730469 424.894531 776.105469 401.90625 C 787.488281 378.917969 797.855469 357.339844 806.492188 338.722656 C 815.136719 320.113281 822.042969 304.46875 826.726562 293.449219 C 829.074219 287.945312 830.871094 283.597656 832.085938 280.628906 C 833.296875 277.660156 833.941406 276.074219 833.941406 276.074219 C 833.941406 276.074219 833.316406 277.667969 832.148438 280.65625 C 830.976562 283.640625 829.234375 288.011719 826.964844 293.550781 C 822.429688 304.632812 815.738281 320.378906 807.34375 339.113281 C 798.960938 357.851562 788.882812 379.582031 777.8125 402.734375 C 766.746094 425.890625 754.691406 450.464844 742.4375 474.945312 C 717.9375 523.90625 692.640625 572.464844 673.226562 608.660156 C 663.519531 626.761719 655.289062 641.769531 649.375 652.222656 C 646.417969 657.449219 644.042969 661.53125 642.328125 664.320312 C 641.472656 665.71875 640.785156 666.785156 640.226562 667.566406 C 639.953125 667.957031 639.691406 668.292969 639.371094 668.636719 C 639.082031 668.933594 638.761719 669.160156 638.476562 669.316406 C 638.335938 669.394531 638.203125 669.457031 638.085938 669.503906 C 638.046875 669.523438 638.007812 669.535156 637.976562 669.550781 C 637.929688 669.570312 637.90625 669.585938 637.90625 669.585938 Z M 636.03125 663.882812 "/>
<path style=" stroke:none;fill-rule:nonzero;fill:rgb(100%,100%,100%);fill-opacity:1;" d="M 638.152344 669.492188 C 638.152344 669.492188 636.617188 670.148438 633.589844 671.316406 C 632.085938 671.925781 630.238281 672.59375 628.066406 673.382812 C 625.894531 674.171875 623.40625 675.105469 620.589844 676.027344 C 617.773438 676.96875 614.667969 678.054688 611.265625 679.148438 C 607.855469 680.210938 604.164062 681.355469 600.222656 682.582031 C 598.257812 683.214844 596.210938 683.796875 594.101562 684.390625 C 591.992188 684.988281 589.824219 685.605469 587.597656 686.238281 C 585.371094 686.871094 583.089844 687.519531 580.753906 688.183594 C 578.414062 688.839844 576 689.421875 573.546875 690.066406 C 568.636719 691.332031 563.515625 692.648438 558.21875 694.007812 C 552.894531 695.242188 547.390625 696.515625 541.726562 697.828125 C 538.894531 698.472656 536.035156 699.164062 533.121094 699.800781 C 530.203125 700.398438 527.25 701.007812 524.261719 701.621094 C 518.289062 702.847656 512.1875 704.101562 505.984375 705.375 C 499.75 706.496094 493.410156 707.636719 486.996094 708.789062 C 480.578125 709.933594 474.101562 711.171875 467.519531 712.113281 C 460.949219 713.125 454.324219 714.144531 447.675781 715.171875 C 444.351562 715.664062 441.03125 716.242188 437.683594 716.664062 C 434.339844 717.09375 430.988281 717.527344 427.640625 717.957031 C 414.246094 719.652344 400.875 721.542969 387.640625 722.769531 C 381.03125 723.453125 374.472656 724.132812 367.996094 724.804688 C 364.757812 725.128906 361.539062 725.5 358.339844 725.78125 C 355.136719 726.035156 351.957031 726.285156 348.804688 726.53125 C 336.1875 727.511719 324 728.523438 312.433594 729.359375 C 300.851562 729.988281 289.90625 730.578125 279.800781 731.128906 C 274.746094 731.398438 269.90625 731.660156 265.300781 731.910156 C 260.691406 732.050781 256.316406 732.183594 252.207031 732.308594 C 243.992188 732.550781 236.824219 732.761719 230.925781 732.9375 C 219.128906 733.289062 212.386719 733.488281 212.386719 733.488281 C 212.386719 733.488281 219.125 733.195312 230.917969 732.679688 C 236.8125 732.421875 243.972656 732.113281 252.183594 731.753906 C 256.289062 731.570312 260.660156 731.378906 265.265625 731.175781 C 269.863281 730.863281 274.699219 730.535156 279.746094 730.191406 C 289.835938 729.503906 300.769531 728.761719 312.332031 727.972656 C 323.875 726.976562 336.039062 725.796875 348.628906 724.644531 C 351.773438 724.351562 354.945312 724.058594 358.140625 723.761719 C 361.335938 723.433594 364.539062 723.019531 367.769531 722.652344 C 374.230469 721.890625 380.769531 721.121094 387.355469 720.347656 C 400.554688 718.9375 413.875 716.867188 427.222656 714.988281 C 430.554688 714.511719 433.890625 714.035156 437.222656 713.558594 C 440.554688 713.09375 443.863281 712.46875 447.175781 711.929688 C 453.789062 710.816406 460.382812 709.707031 466.921875 708.605469 C 473.472656 707.574219 479.917969 706.25 486.300781 705.023438 C 492.675781 703.78125 498.976562 702.558594 505.175781 701.355469 C 511.339844 700 517.402344 698.664062 523.335938 697.359375 C 526.300781 696.707031 529.234375 696.0625 532.136719 695.425781 C 535.027344 694.753906 537.863281 694.023438 540.675781 693.34375 C 546.292969 691.960938 551.753906 690.613281 557.035156 689.3125 C 562.285156 687.886719 567.355469 686.507812 572.222656 685.183594 C 574.652344 684.507812 577.046875 683.894531 579.359375 683.210938 C 581.671875 682.519531 583.929688 681.84375 586.132812 681.183594 C 588.332031 680.527344 590.476562 679.882812 592.5625 679.261719 C 594.648438 678.644531 596.671875 678.035156 598.609375 677.382812 C 602.5 676.113281 606.140625 674.925781 609.507812 673.828125 C 612.863281 672.695312 615.910156 671.578125 618.679688 670.613281 C 621.457031 669.660156 623.890625 668.710938 626.015625 667.902344 C 628.144531 667.097656 629.953125 666.414062 631.371094 665.816406 C 634.230469 664.667969 635.785156 663.976562 635.785156 663.976562 Z M 638.152344 669.492188 "/>
</g>
</svg>
