<?xml version="1.0" encoding="utf-8"?>
<!-- Generator: Adobe Illustrator 16.0.0, SVG Export Plug-In . SVG Version: 6.00 Build 0)  -->
<!DOCTYPE svg PUBLIC "-//W3C//DTD SVG 1.1//EN" "http://www.w3.org/Graphics/SVG/1.1/DTD/svg11.dtd">
<svg version="1.1" id="Layer_1" xmlns="http://www.w3.org/2000/svg" xmlns:xlink="http://www.w3.org/1999/xlink" x="0px" y="0px"
	 width="1080px" height="1080px" viewBox="0 0 1080 1080" enable-background="new 0 0 1080 1080" xml:space="preserve">
<circle fill="#F2F2F2" stroke="#191919" stroke-width="5" stroke-miterlimit="10" cx="539.895" cy="539.249" r="486.091"/>
<g>
	<path fill-rule="evenodd" clip-rule="evenodd" fill="none" d="M369.421,541.167c0-61.688,0.015-123.377-0.06-185.065
		c-0.002-2.137,0.419-2.557,2.556-2.556c115.055,0.067,230.108,0.067,345.164,0c2.136-0.001,2.557,0.418,2.556,2.556
		c-0.066,123.377-0.066,246.753,0,370.13c0.001,2.136-0.419,2.558-2.556,2.556c-115.055-0.066-230.109-0.066-345.164,0
		c-2.136,0.002-2.559-0.417-2.557-2.556C369.436,664.544,369.421,602.855,369.421,541.167z M728.713,701.473
		c5.315,1.04,11.807-2.79,18.575-2.45c28.803,1.444,54.906-8.518,81.034-18.521c3.407-1.307,6.301-3.484,9.309-5.576
		c13.962-9.716,24.561-22.977,36.859-34.432c14.867-13.849,23.329-31.368,26.639-51.078c3.33-19.836,5.339-39.894,8.049-59.837
		c0.362-2.678-1.045-4.2-2.463-6.005c-5.228-6.642-9.219-13.856-12.381-21.824c-4.808-12.126-8.006-24.552-10.86-37.221
		c-4.889-21.691-10.962-43.116-15.079-64.985c-2.184-11.598-2.78-23.633-6.192-34.833c-9.479-31.124-13.878-62.919-15.024-95.269
		c-0.413-11.61-1.835-12.915-12.787-9.648c-19.68,5.867-38.29,14.694-56.392,23.883c-26.913,13.661-53.388,28.255-80.479,41.604
		c-26.027,12.827-51.252,14.873-74.41-6.9c-11.056-10.395-24.337-17.86-38.57-22.677c-20.076-6.792-38.847-16.563-58.652-24
		c-20.883-7.842-41.987-14.756-63.205-21.538c-19.872-6.353-39.686-13.092-58.473-22.35c-13.672-6.737-26.052-15.814-39.995-22.11
		c-20.563-9.285-39.561-21.283-57.998-34.192c-4.915-3.443-9.446-9.535-16.142-5.235c-6.402,4.111-4.36,11.343-3.906,17.561
		c0.765,10.485,4.312,20.456,6.093,30.747c5.502,31.798,11.347,63.558,12.947,95.887c0.438,8.854,0.288,17.788,1.443,26.55
		c3.293,24.997,4.312,50.282,9.092,75.077c4.965,25.752,1.982,52.039,6.155,77.93c4.385,27.212,3.85,54.895,2.989,82.415
		c-0.562,18.002-5.512,34.508-19.709,47.07c-3.722,3.291-7.422,6.944-9.995,11.131c-5.806,9.454-13.248,17.202-21.781,24.136
		c-4.749,3.859-9.57,7.802-13.535,12.414c-18.373,21.375-38.004,41.578-57.226,62.161c-7.735,8.283-7.042,14.219,3.21,19.021
		c11.72,5.491,23.884,10.007,34.214,18.178c8.439,6.677,19.152,9.715,27.746,15.95c22.514,16.346,47.237,29.013,70.904,43.4
		c24.454,14.864,50.621,27.098,72.309,46.106c12.623,11.064,26.9,21.069,30.793,39.493c1.933,9.143,8.152,12.135,17.648,10.763
		c5.165-0.746,10.226-1.969,15.461-2.524c15.091-1.605,30.317-2.851,45.129-5.954c22.555-4.726,43.531-13.282,62.924-26.52
		c17.297-11.8,30.707-26.519,39.859-44.743c7.301-14.534,12.943-29.956,18.594-45.304c12.937-35.143,15.493-70.804,6.978-107.265
		c-0.466-1.998-1.124-4.205,0.947-5.622c1.955-1.336,3.901-0.25,5.768,0.683C677.771,696.297,702.136,700.036,728.713,701.473z"/>
	<path fill-rule="evenodd" clip-rule="evenodd" fill="#191919" d="M728.713,701.473c-26.577-1.437-50.941-5.176-73.587-16.453
		c-1.866-0.933-3.813-2.019-5.768-0.683c-2.071,1.417-1.413,3.624-0.947,5.622c8.516,36.461,5.959,72.122-6.978,107.265
		c-5.65,15.348-11.293,30.77-18.594,45.304c-9.152,18.225-22.563,32.943-39.859,44.743c-19.393,13.237-40.369,21.794-62.924,26.52
		c-14.812,3.104-30.038,4.349-45.129,5.954c-5.235,0.556-10.297,1.778-15.461,2.524c-9.496,1.372-15.715-1.62-17.648-10.763
		c-3.893-18.424-18.17-28.429-30.793-39.493c-21.688-19.009-47.855-31.242-72.309-46.106c-23.667-14.388-48.39-27.055-70.904-43.4
		c-8.594-6.235-19.307-9.273-27.746-15.95c-10.331-8.171-22.495-12.687-34.214-18.178c-10.251-4.802-10.945-10.737-3.21-19.021
		c19.221-20.583,38.853-40.786,57.226-62.161c3.965-4.612,8.786-8.555,13.535-12.414c8.533-6.934,15.975-14.682,21.781-24.136
		c2.572-4.187,6.273-7.84,9.995-11.131c14.198-12.563,19.147-29.068,19.709-47.07c0.861-27.521,1.396-55.203-2.989-82.415
		c-4.173-25.892-1.19-52.178-6.155-77.93c-4.78-24.795-5.798-50.08-9.092-75.077c-1.155-8.762-1.004-17.696-1.443-26.55
		c-1.6-32.329-7.445-64.088-12.947-95.887c-1.781-10.291-5.328-20.262-6.093-30.747c-0.454-6.218-2.497-13.45,3.906-17.561
		c6.696-4.299,11.227,1.792,16.142,5.235c18.437,12.909,37.435,24.907,57.998,34.192c13.943,6.295,26.323,15.373,39.995,22.11
		c18.788,9.258,38.601,15.998,58.473,22.35c21.217,6.782,42.322,13.696,63.205,21.538c19.806,7.437,38.576,17.208,58.652,24
		c14.233,4.816,27.515,12.282,38.57,22.677c23.158,21.772,48.383,19.727,74.41,6.9c27.092-13.35,53.566-27.943,80.479-41.604
		c18.102-9.189,36.712-18.017,56.392-23.883c10.952-3.266,12.374-1.962,12.787,9.648c1.146,32.35,5.546,64.145,15.024,95.269
		c3.412,11.2,4.009,23.235,6.192,34.833c4.117,21.869,10.19,43.294,15.079,64.985c2.854,12.669,6.053,25.095,10.86,37.221
		c3.162,7.968,7.153,15.183,12.381,21.824c1.418,1.805,2.825,3.327,2.463,6.005c-2.71,19.943-4.719,40.001-8.049,59.837
		c-3.31,19.71-11.771,37.229-26.639,51.078c-12.299,11.455-22.897,24.716-36.859,34.432c-3.008,2.092-5.901,4.27-9.309,5.576
		c-26.128,10.004-52.231,19.966-81.034,18.521C740.52,698.683,734.028,702.513,728.713,701.473z"/>
</g>
<g>
	<line fill="#FFFFFF" x1="647.355" y1="680.961" x2="675.807" y2="724.003"/>
	<polygon fill="#191919" points="649.858,679.307 675.807,724.003 644.853,682.615 	"/>
</g>
<circle id="centerjoint" fill="none" cx="636.969" cy="666.734" r="3.338"/>
<g id="midstem">
	<path fill="#FFFFFF" d="M634.56,668.521c-0.001,0-88.518-120.561-174.862-242.678c-43.171-61.056-85.802-122.506-116.529-169.432
		c-15.363-23.459-27.75-43.293-35.729-57.581c-3.991-7.14-6.874-12.898-8.499-16.972c-0.817-2.034-1.308-3.646-1.539-4.755
		c-0.105-0.557-0.175-0.98-0.178-1.269c-0.019-0.287-0.029-0.433-0.029-0.433s0.011,0.146,0.033,0.432
		c0.005,0.289,0.08,0.711,0.19,1.266c0.242,1.104,0.749,2.71,1.585,4.733c1.664,4.052,4.601,9.776,8.661,16.871
		c8.116,14.196,20.695,33.895,36.286,57.189c31.184,46.597,74.418,107.601,118.188,168.206
		c87.545,121.217,177.24,240.848,177.24,240.848L634.56,668.521z"/>
</g>
<g id="rightStem">
	<path fill="#FFFFFF" d="M636.032,663.884c0,0,0.024-0.011,0.073-0.032l0.019-0.009c0.016-0.005,0.02-0.008-0.048,0.011
		c-0.096,0.027-0.201,0.064-0.313,0.115c-0.224,0.101-0.478,0.266-0.69,0.49c-0.038,0.034,0.104-0.113,0.31-0.401
		c0.412-0.56,1.075-1.55,1.912-2.875c1.682-2.654,4.093-6.671,7.103-11.821c6.021-10.309,14.442-25.182,24.382-43.123
		c19.884-35.883,45.831-84.062,70.984-132.655c12.58-24.294,24.966-48.69,36.343-71.679c11.381-22.986,21.748-44.566,30.385-63.181
		c8.646-18.61,15.55-34.257,20.235-45.274c2.347-5.506,4.146-9.853,5.36-12.82c1.208-2.971,1.853-4.555,1.853-4.555
		s-0.623,1.593-1.79,4.58c-1.175,2.984-2.914,7.355-5.186,12.895c-4.534,11.082-11.227,26.828-19.62,45.563
		c-8.385,18.739-18.46,40.47-29.53,63.622c-11.066,23.154-23.123,47.73-35.376,72.209c-24.5,48.961-49.799,97.52-69.213,133.716
		c-9.706,18.101-17.936,33.11-23.849,43.562c-2.959,5.228-5.334,9.311-7.047,12.099c-0.857,1.398-1.544,2.464-2.103,3.247
		c-0.274,0.388-0.534,0.724-0.854,1.07c-0.29,0.297-0.611,0.523-0.894,0.678c-0.142,0.078-0.273,0.14-0.394,0.189
		c-0.039,0.017-0.075,0.031-0.106,0.045c-0.048,0.022-0.072,0.034-0.072,0.034L636.032,663.884z"/>
</g>
<g id="leftStem">
	<path fill="#FFFFFF" d="M638.151,669.491c0,0-1.534,0.658-4.561,1.826c-1.505,0.609-3.352,1.276-5.522,2.066
		c-2.172,0.79-4.661,1.723-7.48,2.646c-2.815,0.938-5.919,2.026-9.321,3.12c-3.412,1.061-7.102,2.208-11.044,3.434
		c-1.966,0.632-4.014,1.215-6.123,1.808c-2.107,0.599-4.276,1.215-6.502,1.848c-2.225,0.633-4.507,1.281-6.844,1.945
		c-2.339,0.654-4.753,1.239-7.207,1.883c-4.912,1.264-10.03,2.58-15.327,3.942c-5.325,1.233-10.831,2.508-16.492,3.818
		c-2.832,0.646-5.694,1.339-8.605,1.972c-2.919,0.6-5.874,1.207-8.86,1.821c-5.973,1.227-12.074,2.48-18.28,3.756
		c-6.233,1.121-12.571,2.261-18.986,3.414c-6.417,1.144-12.896,2.38-19.479,3.323c-6.57,1.013-13.192,2.033-19.841,3.059
		c-3.327,0.491-6.647,1.072-9.994,1.492c-3.345,0.431-6.694,0.862-10.042,1.293c-13.396,1.696-26.767,3.586-40.002,4.812
		c-6.609,0.686-13.165,1.365-19.643,2.037c-3.239,0.324-6.455,0.694-9.655,0.976c-3.203,0.252-6.383,0.503-9.537,0.751
		c-12.616,0.978-24.805,1.992-36.371,2.828c-11.58,0.627-22.528,1.219-32.634,1.766c-5.052,0.273-9.894,0.535-14.499,0.784
		c-4.61,0.14-8.982,0.271-13.092,0.396c-8.217,0.244-15.382,0.456-21.282,0.631c-11.798,0.35-18.54,0.549-18.54,0.549
		s6.739-0.293,18.532-0.807c5.896-0.257,13.055-0.568,21.267-0.926c4.105-0.182,8.474-0.374,13.079-0.577
		c4.6-0.313,9.436-0.643,14.482-0.985c10.091-0.688,21.023-1.431,32.585-2.218c11.545-0.997,23.709-2.179,36.296-3.33
		c3.146-0.292,6.319-0.587,9.514-0.883c3.193-0.326,6.399-0.74,9.63-1.109c6.459-0.761,12.997-1.53,19.586-2.306
		c13.197-1.407,26.519-3.48,39.864-5.358c3.335-0.477,6.67-0.953,10.002-1.43c3.333-0.465,6.639-1.091,9.951-1.628
		c6.617-1.114,13.208-2.224,19.748-3.325c6.551-1.032,12.996-2.354,19.377-3.583c6.378-1.239,12.679-2.463,18.877-3.666
		c6.165-1.356,12.226-2.69,18.16-3.996c2.966-0.652,5.9-1.298,8.799-1.936c2.891-0.671,5.73-1.399,8.541-2.082
		c5.616-1.383,11.078-2.728,16.361-4.028c5.248-1.428,10.318-2.808,15.187-4.132c2.43-0.674,4.822-1.289,7.137-1.972
		c2.311-0.691,4.568-1.367,6.77-2.026c2.201-0.658,4.345-1.3,6.43-1.924c2.087-0.617,4.11-1.225,6.05-1.878
		c3.89-1.269,7.53-2.456,10.897-3.555c3.354-1.13,6.402-2.247,9.173-3.213c2.777-0.952,5.21-1.902,7.335-2.71
		c2.127-0.807,3.938-1.49,5.356-2.088c2.858-1.147,4.415-1.84,4.415-1.839L638.151,669.491z"/>
</g>
</svg>
